C:\Users\r0593348\3dpredictsim\Results\batch_windlass\Pog_s1_tmt_bCst_d05_k1000_WL40_ig24_act_TTC_GRF.mot
nRows=30
nColumns=19

name C:\Users\r0593348\3dpredictsim\Results\batch_windlass\Pog_s1_tmt_bCst_d05_k1000_WL40_ig24_act_TTC_GRF.mot
datacolumns 19
datarows 30
range 0.6008677202 0.9493709980
endheader
time 	ground_force_vx	ground_force_vy	ground_force_vz	ground_force_px	ground_force_py	ground_force_pz	1_ground_force_vx	1_ground_force_vy	1_ground_force_vz	1_ground_force_px	1_ground_force_py	1_ground_force_pz	ground_torque_x	ground_torque_y	ground_torque_z	1_ground_torque_x	1_ground_torque_y	1_ground_torque_z
        0.6008677202	       55.6853369139	      297.4591086819	        2.0875626852	        0.3985312477	        0.0000000000	        0.0298068143	      -44.3658205062	       33.2787920474	       -8.7895498873	        0.9144499228	        0.0000000000	       -0.0552587842	        0.0000000000	        0.0000000000	        0.0000000000	        0.0000000000	        0.0000000000	        0.0000000000	
        0.6128850746	       34.3361495924	      210.1136262682	        8.0273052535	        0.4092072502	        0.0000000000	        0.0240927878	     -111.5954813741	       97.6257678067	      -26.7025362177	        0.9248615763	        0.0000000000	       -0.0533396475	        0.0000000000	        0.0000000000	        0.0000000000	        0.0000000000	        0.0000000000	        0.0000000000	
        0.6249024290	       20.2556054863	      163.3589926263	       16.9234801589	        0.4108902271	        0.0000000000	        0.0234473970	     -119.0841509449	      249.9181342059	      -38.0723002977	        0.9337489164	        0.0000000000	       -0.0524096208	        0.0000000000	        0.0000000000	        0.0000000000	        0.0000000000	        0.0000000000	        0.0000000000	
        0.6369197834	       12.2540118207	      108.8531666595	       14.5523509041	        0.4110598448	        0.0000000000	        0.0234320167	      -83.6145617176	      555.0999566235	        4.2463681457	        0.9450875354	        0.0000000000	       -0.0535003009	        0.0000000000	        0.0000000000	        0.0000000000	        0.0000000000	        0.0000000000	        0.0000000000	
        0.6489371378	       -5.4515919355	       47.1746129832	        6.6795584759	        0.4096668358	        0.0000000000	        0.0231072877	     -115.2378921103	      852.8727329122	       25.1664313435	        0.9553470154	        0.0000000000	       -0.0556153192	        0.0000000000	        0.0000000000	        0.0000000000	        0.0000000000	        0.0000000000	        0.0000000000	
        0.6609544923	       -3.6678824823	        3.7403603956	       -0.2801304313	        0.0000000000	        0.0000000000	        0.0000000000	     -141.5953100582	      963.4065603322	       28.6213923336	        0.9614134133	        0.0000000000	       -0.0567542949	        0.0000000000	        0.0000000000	        0.0000000000	        0.0000000000	        0.0000000000	        0.0000000000	
        0.6729718467	       -2.0854747456	        1.8390623234	       -0.2252537138	        0.0000000000	        0.0000000000	        0.0000000000	     -143.6978936045	      962.4684541219	       28.1807281821	        0.9672099639	        0.0000000000	       -0.0571437413	        0.0000000000	        0.0000000000	        0.0000000000	        0.0000000000	        0.0000000000	        0.0000000000	
        0.6849892011	       -0.1681799701	        0.1279989286	       -0.0177477800	        0.0000000000	        0.0000000000	        0.0000000000	     -136.8141397602	      915.0134064332	       24.5679730559	        0.9731578047	        0.0000000000	       -0.0570047747	        0.0000000000	        0.0000000000	        0.0000000000	        0.0000000000	        0.0000000000	        0.0000000000	
        0.6970065555	       -0.3147773714	        0.2160311663	       -0.0309782302	        0.0000000000	        0.0000000000	        0.0000000000	     -124.7988752691	      865.6140477946	       21.2591053663	        0.9792504733	        0.0000000000	       -0.0565301662	        0.0000000000	        0.0000000000	        0.0000000000	        0.0000000000	        0.0000000000	        0.0000000000	
        0.7090239099	       -0.0822463137	        0.0521640383	       -0.0067687688	        0.0000000000	        0.0000000000	        0.0000000000	     -110.0446945347	      808.1478384281	       19.9726193713	        0.9849680333	        0.0000000000	       -0.0560156351	        0.0000000000	        0.0000000000	        0.0000000000	        0.0000000000	        0.0000000000	        0.0000000000	
        0.7210412643	       -0.2137532429	        0.1288932079	       -0.0150463655	        0.0000000000	        0.0000000000	        0.0000000000	      -93.9203140812	      757.6994851081	       20.4965008573	        0.9891582622	        0.0000000000	       -0.0556276398	        0.0000000000	        0.0000000000	        0.0000000000	        0.0000000000	        0.0000000000	        0.0000000000	
        0.7330586187	       -0.1430803321	        0.0821619260	       -0.0090497258	        0.0000000000	        0.0000000000	        0.0000000000	      -80.5978232595	      719.0239883190	       21.1512108333	        0.9928997368	        0.0000000000	       -0.0553941715	        0.0000000000	        0.0000000000	        0.0000000000	        0.0000000000	        0.0000000000	        0.0000000000	
        0.7450759731	       -0.0715710894	        0.0387891170	       -0.0046369423	        0.0000000000	        0.0000000000	        0.0000000000	      -68.4137133215	      687.4284991311	       21.8477460468	        0.9963075900	        0.0000000000	       -0.0552633343	        0.0000000000	        0.0000000000	        0.0000000000	        0.0000000000	        0.0000000000	        0.0000000000	
        0.7570933275	       -0.0391897735	        0.0201698487	       -0.0025783461	        0.0000000000	        0.0000000000	        0.0000000000	      -57.1985692279	      659.8286628360	       22.0909356657	        0.9995804961	        0.0000000000	       -0.0552096324	        0.0000000000	        0.0000000000	        0.0000000000	        0.0000000000	        0.0000000000	        0.0000000000	
        0.7691106819	       -0.0261129054	        0.0128503588	       -0.0017482808	        0.0000000000	        0.0000000000	        0.0000000000	      -47.3047624251	      636.1940350815	       22.3344905884	        1.0029006040	        0.0000000000	       -0.0551933394	        0.0000000000	        0.0000000000	        0.0000000000	        0.0000000000	        0.0000000000	        0.0000000000	
        0.7811280363	       -0.0218081942	        0.0103217083	       -0.0014673212	        0.0000000000	        0.0000000000	        0.0000000000	      -38.5283513828	      616.2889625514	       22.6305707753	        1.0064502940	        0.0000000000	       -0.0551819747	        0.0000000000	        0.0000000000	        0.0000000000	        0.0000000000	        0.0000000000	        0.0000000000	
        0.7931453907	       -0.0228852746	        0.0104711709	       -0.0015313813	        0.0000000000	        0.0000000000	        0.0000000000	      -31.2962547697	      600.0071904980	       22.4659566165	        1.0100874071	        0.0000000000	       -0.0551664581	        0.0000000000	        0.0000000000	        0.0000000000	        0.0000000000	        0.0000000000	        0.0000000000	
        0.8051627451	       -0.0298807268	        0.0132717208	       -0.0019626737	        0.0000000000	        0.0000000000	        0.0000000000	      -24.4766303558	      588.0690091019	       22.2027728809	        1.0139251007	        0.0000000000	       -0.0551265466	        0.0000000000	        0.0000000000	        0.0000000000	        0.0000000000	        0.0000000000	        0.0000000000	
        0.8171800995	       -0.0469087087	        0.0202848677	       -0.0029873976	        0.0000000000	        0.0000000000	        0.0000000000	      -18.8373794421	      580.6366323566	       21.9447885358	        1.0182406509	        0.0000000000	       -0.0550099674	        0.0000000000	        0.0000000000	        0.0000000000	        0.0000000000	        0.0000000000	        0.0000000000	
        0.8291974539	       -0.0833119302	        0.0351660522	       -0.0050976487	        0.0000000000	        0.0000000000	        0.0000000000	      -14.8403157234	      576.5803908863	       21.9609882364	        1.0228549316	        0.0000000000	       -0.0548071464	        0.0000000000	        0.0000000000	        0.0000000000	        0.0000000000	        0.0000000000	        0.0000000000	
        0.8412148083	       -0.1557001325	        0.0643299217	       -0.0091248802	        0.0000000000	        0.0000000000	        0.0000000000	      -11.5880587137	      574.4843876271	       22.0095732197	        1.0275173443	        0.0000000000	       -0.0545477058	        0.0000000000	        0.0000000000	        0.0000000000	        0.0000000000	        0.0000000000	        0.0000000000	
        0.8532321627	       -0.2858477357	        0.1159595003	       -0.0159797669	        0.0000000000	        0.0000000000	        0.0000000000	       -8.5743756742	      573.0600588122	       22.0353159862	        1.0321621411	        0.0000000000	       -0.0542468520	        0.0000000000	        0.0000000000	        0.0000000000	        0.0000000000	        0.0000000000	        0.0000000000	
        0.8652495171	       -0.4895046785	        0.1955966376	       -0.0260825591	        0.0000000000	        0.0000000000	        0.0000000000	       -5.6817437277	      571.5432265671	       22.1071484023	        1.0367866620	        0.0000000000	       -0.0539119072	        0.0000000000	        0.0000000000	        0.0000000000	        0.0000000000	        0.0000000000	        0.0000000000	
        0.8772668715	       -0.7586674398	        0.2995336601	       -0.0385933145	        0.0000000000	        0.0000000000	        0.0000000000	       -3.0227786188	      569.5236323073	       22.2137076902	        1.0413650979	        0.0000000000	       -0.0535530770	        0.0000000000	        0.0000000000	        0.0000000000	        0.0000000000	        0.0000000000	        0.0000000000	
        0.8892842259	       -1.0502447219	        0.4109294299	       -0.0508884136	        0.0000000000	        0.0000000000	        0.0000000000	       -0.5046377969	      566.7878768692	       21.9390907058	        1.0457981271	        0.0000000000	       -0.0531943237	        0.0000000000	        0.0000000000	        0.0000000000	        0.0000000000	        0.0000000000	        0.0000000000	
        0.9013015803	       -1.3011545169	        0.5058731399	       -0.0594857575	        0.0000000000	        0.0000000000	        0.0000000000	        1.7989871596	      563.1353126348	       21.4973100910	        1.0500589922	        0.0000000000	       -0.0528377458	        0.0000000000	        0.0000000000	        0.0000000000	        0.0000000000	        0.0000000000	        0.0000000000	
        0.9133189347	       -1.4639761755	        0.5667828794	       -0.0619024000	        0.0000000000	        0.0000000000	        0.0000000000	        4.2080036880	      560.2032211556	       20.5455633145	        1.0543688833	        0.0000000000	       -0.0524558727	        0.0000000000	        0.0000000000	        0.0000000000	        0.0000000000	        0.0000000000	        0.0000000000	
        0.9253362892	       -1.5291225678	        0.5904229303	       -0.0575946416	        0.0000000000	        0.0000000000	        0.0000000000	        6.7447180809	      559.7921185226	       19.0751091191	        1.0589412998	        0.0000000000	       -0.0520064130	        0.0000000000	        0.0000000000	        0.0000000000	        0.0000000000	        0.0000000000	        0.0000000000	
        0.9373536436	       -1.5128014908	        0.5831788183	       -0.0478948947	        0.0000000000	        0.0000000000	        0.0000000000	        9.1822048646	      561.5131453220	       17.7770277206	        1.0637295605	        0.0000000000	       -0.0514745278	        0.0000000000	        0.0000000000	        0.0000000000	        0.0000000000	        0.0000000000	        0.0000000000	
        0.9493709980	       -1.4299528134	        0.5507763439	       -0.0352123850	        0.0000000000	        0.0000000000	        0.0000000000	       11.8268615069	      566.3989223207	       16.6359622676	        1.0687598259	        0.0000000000	       -0.0508564696	        0.0000000000	        0.0000000000	        0.0000000000	        0.0000000000	        0.0000000000	        0.0000000000	
